<?xml version="1.0" encoding="UTF-8" standalone="no"?>
<!-- Created with Inkscape (http://www.inkscape.org/) -->

<svg
   width="177.64061"
   height="353.32834"
   viewBox="0 0 47.000742 93.484792"
   version="1.1"
   id="svg5"
   inkscape:version="1.2.2 (732a01da63, 2022-12-09)"
   sodipodi:docname="MOUSEIcon.svg"
   inkscape:export-filename="MOUSEIcon.png"
   inkscape:export-xdpi="255.80731"
   inkscape:export-ydpi="255.80731"
   xmlns:inkscape="http://www.inkscape.org/namespaces/inkscape"
   xmlns:sodipodi="http://sodipodi.sourceforge.net/DTD/sodipodi-0.dtd"
   xmlns="http://www.w3.org/2000/svg"
   xmlns:svg="http://www.w3.org/2000/svg">
  <sodipodi:namedview
     id="namedview7"
     pagecolor="#505050"
     bordercolor="#eeeeee"
     borderopacity="1"
     inkscape:showpageshadow="0"
     inkscape:pageopacity="0"
     inkscape:pagecheckerboard="0"
     inkscape:deskcolor="#505050"
     inkscape:document-units="mm"
     showgrid="false"
     inkscape:zoom="1.4912879"
     inkscape:cx="-62.026923"
     inkscape:cy="134.78283"
     inkscape:window-width="1920"
     inkscape:window-height="1017"
     inkscape:window-x="-8"
     inkscape:window-y="1072"
     inkscape:window-maximized="1"
     inkscape:current-layer="layer1" />
  <defs
     id="defs2" />
  <g
     inkscape:label="Layer 1"
     inkscape:groupmode="layer"
     id="layer1"
     transform="translate(-42.645461,-12.160956)">
    <path
       style="fill:#ffffff;fill-opacity:1;stroke-width:2.646;stroke-dasharray:none"
       d="m 59.218724,83.946297 c -1.936096,-0.435562 -3.458884,-2.602858 -3.267658,-4.650662 0.144496,-1.547373 1.208567,-3.0773 2.554295,-3.67258 L 59.04852,75.38279 V 72.859765 70.33674 L 58.505361,70.096474 C 57.685537,69.733828 56.723166,68.756571 56.320977,67.878305 56.0241,67.230009 55.977076,66.97893 55.976918,66.04124 c -1.65e-4,-0.976704 0.03885,-1.166469 0.387142,-1.883443 1.169942,-2.408316 4.065059,-3.219619 6.334728,-1.775191 1.399216,0.890467 2.209478,2.767766 1.9056,4.415096 -0.26749,1.450085 -1.381561,2.88813 -2.597108,3.352351 l -0.545122,0.208184 v 2.501528 2.501527 l 0.573239,0.21801 c 0.766744,0.2916 1.966991,1.491847 2.25859,2.258589 l 0.218009,0.57324 h 1.656755 1.656754 l 0.218563,-0.57324 c 0.273597,-0.717582 1.346919,-1.809568 2.165796,-2.203459 0.883008,-0.424739 2.403654,-0.479589 3.354824,-0.121011 0.976025,0.36795 1.999399,1.338456 2.447018,2.320605 0.293851,0.644754 0.345466,0.91153 0.345128,1.783924 -4.56e-4,1.271541 -0.295502,2.086687 -1.079117,2.981685 -2.093693,2.391279 -6.04327,1.719217 -7.258147,-1.235052 l -0.221615,-0.53891 h -1.629204 -1.629205 l -0.221615,0.53891 c -0.814796,1.981375 -2.953824,3.064359 -5.099207,2.581714 z m 2.43411,-2.186245 c 1.701633,-1.150706 1.441831,-3.695253 -0.458334,-4.488997 -0.997323,-0.416606 -2.300567,-0.01015 -2.943864,0.918125 -0.463738,0.669173 -0.553571,1.880119 -0.191819,2.585712 0.475825,0.928094 1.200389,1.365545 2.273395,1.372544 0.640485,0.0042 0.819044,-0.0482 1.320622,-0.387384 z m 11.490103,0.162597 c 0.969419,-0.497148 1.397256,-1.276992 1.3322,-2.428303 -0.05864,-1.037857 -0.458147,-1.663487 -1.344179,-2.105015 -2.789613,-1.390125 -5.034391,2.620554 -2.446291,4.370721 0.492642,0.333142 0.687729,0.392216 1.295258,0.392216 0.465731,0 0.871468,-0.08011 1.163012,-0.229619 z M 61.1945,68.448475 c 1.900165,-0.793745 2.159967,-3.338291 0.458334,-4.488997 -0.49291,-0.333324 -0.687576,-0.392216 -1.296445,-0.392216 -1.069711,0 -1.822899,0.451529 -2.297572,1.377376 -0.361752,0.705592 -0.271919,1.916539 0.191819,2.585712 0.643297,0.928279 1.946541,1.334731 2.943864,0.918125 z m 10.406175,0.02867 c -0.231632,-0.07377 -0.642153,-0.35512 -0.912268,-0.625236 -1.519688,-1.519689 -0.600605,-4.10829 1.512928,-4.261169 0.934819,-0.06762 1.453934,0.124915 2.034247,0.754482 0.989635,1.073629 0.973808,2.495821 -0.03904,3.508682 -0.714061,0.714064 -1.624364,0.932618 -2.595854,0.623241 z"
       id="path314" />
    <rect
       style="opacity:1;fill:none;stroke:#ffffff;stroke-width:2.646;stroke-linecap:round;stroke-miterlimit:2.8;stroke-dasharray:none;stroke-opacity:1"
       id="rect341"
       width="47.000744"
       height="93.484787"
       x="42.645462"
       y="12.160956"
       ry="20.225805" />
    <rect
       style="opacity:1;fill:none;stroke:#ffffff;stroke-width:2.64599;stroke-linecap:round;stroke-miterlimit:2.8;stroke-dasharray:none;stroke-opacity:1;stroke-linejoin:round"
       id="rect1573"
       width="1.9073486e-06"
       height="9.2258053"
       x="66.145836"
       y="12.160956"
       ry="9.5367432e-07" />
    <rect
       style="opacity:1;fill:none;stroke:#ffffff;stroke-width:2.64599;stroke-linecap:round;stroke-miterlimit:2.8;stroke-dasharray:none;stroke-opacity:1"
       id="rect1575"
       width="5.24156"
       height="16.322582"
       x="63.525055"
       y="21.7416"
       ry="2.62078" />
    <rect
       style="opacity:1;fill:none;stroke:#ffffff;stroke-width:2.646;stroke-linecap:round;stroke-miterlimit:2.8;stroke-dasharray:none;stroke-opacity:1;stroke-linejoin:round"
       id="rect1577"
       width="1.9073486e-06"
       height="12.774193"
       x="66.145836"
       y="38.064182"
       ry="9.5367432e-07" />
  </g>
</svg>
