<?xml version="1.0" encoding="UTF-8" standalone="no"?>
<!-- Created with Inkscape (http://www.inkscape.org/) -->

<svg
   width="177.64061"
   height="353.32834"
   viewBox="0 0 47.000742 93.484792"
   version="1.1"
   id="svg5"
   inkscape:version="1.2.2 (732a01da63, 2022-12-09)"
   sodipodi:docname="PICO.svg"
   inkscape:export-filename="PICO.png"
   inkscape:export-xdpi="96"
   inkscape:export-ydpi="96"
   xmlns:inkscape="http://www.inkscape.org/namespaces/inkscape"
   xmlns:sodipodi="http://sodipodi.sourceforge.net/DTD/sodipodi-0.dtd"
   xmlns="http://www.w3.org/2000/svg"
   xmlns:svg="http://www.w3.org/2000/svg">
  <sodipodi:namedview
     id="namedview7"
     pagecolor="#505050"
     bordercolor="#eeeeee"
     borderopacity="1"
     inkscape:showpageshadow="0"
     inkscape:pageopacity="0"
     inkscape:pagecheckerboard="0"
     inkscape:deskcolor="#505050"
     inkscape:document-units="mm"
     showgrid="false"
     inkscape:zoom="1.4912879"
     inkscape:cx="183.39853"
     inkscape:cy="193.12167"
     inkscape:window-width="1920"
     inkscape:window-height="1017"
     inkscape:window-x="1912"
     inkscape:window-y="-8"
     inkscape:window-maximized="1"
     inkscape:current-layer="layer1" />
  <defs
     id="defs2" />
  <g
     inkscape:label="Layer 1"
     inkscape:groupmode="layer"
     id="layer1"
     transform="translate(-42.645461,-12.160956)">
    <path
       id="rect1679"
       style="opacity:1;fill:none;stroke:#ffffff;stroke-width:2.64583;stroke-linecap:round;stroke-linejoin:round;stroke-miterlimit:0"
       d="M 51.242512,13.483871 H 81.049156 V 44.354916 H 51.242512 Z M 43.968376,44.354915 V 57.838847 61.564718 90.8389 c 0,7.470057 6.013874,13.48393 13.483931,13.48393 H 74.83936 c 7.470057,0 13.483931,-6.013873 13.483931,-13.48393 V 61.564718 57.838847 44.354915 H 74.83936 57.452307 Z" />
    <path
       style="fill:#ffffff;fill-opacity:1;stroke-width:0.147941"
       d="m 52.559101,61.887371 c 0.533947,-2.373419 3.190789,-4.240174 5.70115,-4.005754 1.896892,0.177135 3.772397,1.481558 4.502139,3.131257 l 0.294536,0.665848 h 3.092923 3.092923 l 0.294537,-0.665848 c 0.444561,-1.005005 1.642559,-2.184755 2.719208,-2.677791 0.794732,-0.363935 1.102524,-0.421581 2.252019,-0.421774 1.197321,-2.02e-4 1.42995,0.04762 2.308873,0.474589 2.952304,1.434207 3.946864,4.983271 2.17617,7.76561 -1.091605,1.71527 -3.392946,2.708553 -5.412374,2.336036 -1.777629,-0.327911 -3.540498,-1.693627 -4.109577,-3.18374 L 69.21642,64.63755 h -3.066571 -3.06657 l -0.267253,0.702722 c -0.357467,0.939935 -1.828824,2.411292 -2.768758,2.768758 l -0.702722,0.267252 v 2.030981 2.030981 l 0.702722,0.267931 c 0.879669,0.335397 2.218312,1.65116 2.701175,2.655004 0.520678,1.082461 0.587918,2.946589 0.148344,4.112609 -0.451062,1.196489 -1.640784,2.451021 -2.84478,2.999748 -0.790391,0.360226 -1.117426,0.423499 -2.186875,0.423085 -1.558756,-5.59e-4 -2.558026,-0.36225 -3.655186,-1.322867 -2.931419,-2.566614 -2.107552,-7.408318 1.514025,-8.89761 l 0.660638,-0.271673 v -1.997208 -1.997208 l -0.660638,-0.271673 c -2.428927,-0.998841 -3.756534,-3.621031 -3.16487,-6.251011 z m 2.680072,2.983924 c 1.410627,2.085997 4.529934,1.767511 5.502968,-0.561861 0.510708,-1.222598 0.01244,-2.820218 -1.12551,-3.608822 -0.820326,-0.568486 -2.304799,-0.678611 -3.169771,-0.235147 -1.137731,0.583304 -1.673992,1.471532 -1.682573,2.786908 -0.0052,0.785157 0.05909,1.004048 0.474886,1.618922 z m -0.199324,14.085477 c 0.609444,1.188391 1.565438,1.712867 2.976806,1.633116 1.272287,-0.07189 2.039234,-0.561632 2.580494,-1.6478 1.704125,-3.419729 -3.212482,-6.171555 -5.357976,-2.998858 -0.408392,0.60392 -0.480809,0.843073 -0.480809,1.58783 0,0.57093 0.0982,1.068315 0.281485,1.425712 z M 71.557557,64.309434 c 0.973035,2.329372 4.092341,2.647858 5.502967,0.561861 0.408615,-0.604247 0.48081,-0.842884 0.48081,-1.589284 0,-1.311337 -0.55352,-2.234654 -1.688496,-2.816546 -0.864971,-0.443464 -2.349445,-0.333339 -3.169771,0.235147 -1.137957,0.788604 -1.636219,2.386224 -1.12551,3.608822 z m -0.03515,12.756711 c 0.09043,-0.283952 0.435335,-0.787202 0.766464,-1.11833 1.862955,-1.862954 5.036267,-0.736269 5.223678,1.854667 0.08289,1.145975 -0.153131,1.782347 -0.924904,2.493741 -1.316139,1.213173 -3.059575,1.193771 -4.30122,-0.04786 -0.875356,-0.875352 -1.143277,-1.991273 -0.764018,-3.182203 z"
       id="path314" />
  </g>
</svg>
