<?xml version="1.0" encoding="UTF-8" standalone="no"?>
<!-- Created with Inkscape (http://www.inkscape.org/) -->

<svg
   width="225.19753mm"
   height="80.478119mm"
   viewBox="0 0 225.19753 80.478119"
   version="1.1"
   id="svg5"
   xml:space="preserve"
   inkscape:version="1.2.2 (732a01da63, 2022-12-09)"
   sodipodi:docname="PICO.svg"
   xmlns:inkscape="http://www.inkscape.org/namespaces/inkscape"
   xmlns:sodipodi="http://sodipodi.sourceforge.net/DTD/sodipodi-0.dtd"
   xmlns="http://www.w3.org/2000/svg"
   xmlns:svg="http://www.w3.org/2000/svg"><sodipodi:namedview
     id="namedview7"
     pagecolor="#505050"
     bordercolor="#eeeeee"
     borderopacity="1"
     inkscape:showpageshadow="0"
     inkscape:pageopacity="0"
     inkscape:pagecheckerboard="0"
     inkscape:deskcolor="#505050"
     inkscape:document-units="mm"
     showgrid="false"
     inkscape:zoom="0.74564394"
     inkscape:cx="299.74092"
     inkscape:cy="203.85065"
     inkscape:window-width="1920"
     inkscape:window-height="1017"
     inkscape:window-x="1912"
     inkscape:window-y="1075"
     inkscape:window-maximized="1"
     inkscape:current-layer="layer1" /><defs
     id="defs2" /><g
     inkscape:label="Layer 1"
     inkscape:groupmode="layer"
     id="layer1"
     transform="translate(22.605951,-94.81224)"><path
       style="fill:#000000;stroke-width:0.264583"
       d="m -10.280499,175.03 c -4.060444,-0.92596 -7.535722,-3.53355 -9.894103,-7.42377 -2.171486,-3.58194 -2.965399,-8.18285 -2.068384,-11.98676 1.001801,-4.24827 4.597672,-8.81031 8.503997,-10.78892 l 2.049386,-1.03804 0.0011,-8.78389 0.0011,-8.78388 -1.785938,-0.85133 c -2.5605,-1.22054 -6.205171,-4.91456 -7.540282,-7.64236 -1.324544,-2.70622 -1.603064,-4.23726 -1.474319,-8.10446 l 0.108567,-3.2611 1.279384,-2.52652 c 2.089048,-4.125438 5.075474,-6.774364 9.412588,-8.34886 2.3087232,-0.838133 7.2822199,-0.913721 9.5249996,-0.144763 4.4176103,1.514619 7.5783148,4.212416 9.4877492,8.098203 2.4581273,5.0024 2.4986694,9.34347 0.1330828,14.24992 -1.6501348,3.42253 -4.3092502,6.14427 -7.43723635,7.6124 l -2.18202935,1.02414 -7.937e-4,8.6734 c -7.938e-4,8.02631 0.033761,8.68479 0.4622377,8.82591 3.7544506,1.23656 8.6652098,6.01317 9.8392058,9.57041 l 0.3658049,1.1084 h 5.6596944 5.659691 l 0.408586,-0.99219 c 0.989928,-2.40389 1.39792,-2.98388 3.785081,-5.38068 2.646826,-2.65751 4.47825,-3.78404 7.228258,-4.44615 1.626566,-0.39163 6.297088,-0.41057 7.983392,-0.0324 4.31945,0.96874 9.125436,5.44584 11.039091,10.28365 0.505717,1.27848 0.592503,2.00864 0.602112,5.06567 0.0093,2.97386 -0.08684,3.88196 -0.574497,5.42396 -1.608249,5.08535 -6.466888,9.3794 -12.000831,10.60629 -0.351348,0.0779 -1.71038,0.14571 -3.020068,0.1507 -6.42375,0.0245 -11.443372,-3.16109 -14.406514,-9.14269 l -1.127348,-2.27576 H 14.259608 8.7768776 L 7.544721,166.2506 c -2.0738042,4.17747 -5.5767128,7.11552 -10.1281811,8.49497 -1.9357067,0.58667 -5.7531129,0.72774 -7.6970389,0.28443 z m 6.9275406,-7.78584 c 1.5432167,-0.70213 3.50487718,-2.73906 4.31025826,-4.47565 0.92839644,-2.00184 0.98780074,-5.09957 0.13392944,-6.98394 -1.79417132,-3.95947 -6.3086686,-6.08115 -10.2809137,-4.83172 -3.7295966,1.1731 -5.9277776,4.35308 -5.9326166,8.58236 -0.0042,3.65933 2.010072,6.54949 5.3750131,7.71233 1.8481328,0.63867 4.9868113,0.63701 6.3943295,-0.003 z m 41.2239824,0.21305 c 1.504331,-0.3798 3.490174,-1.87351 4.401725,-3.31087 0.944435,-1.48923 1.46105,-4.10526 1.211379,-6.13416 -0.437682,-3.55671 -2.166409,-5.63642 -5.649349,-6.79634 -2.391042,-0.79629 -3.591359,-0.84361 -5.414936,-0.21344 -1.788991,0.61822 -3.951997,2.72797 -4.867016,4.74718 -0.571,1.26006 -0.698873,1.94168 -0.710369,3.78662 -0.01281,2.0536 0.05879,2.37686 0.820235,3.70417 0.865611,1.50888 2.660769,3.19631 4.27696,4.02029 1.076137,0.54864 4.135297,0.65002 5.931371,0.19655 z M -3.3094926,118.67718 c 1.7843685,-0.83081 3.41255607,-2.48604 4.2755581,-4.34657 0.567182,-1.22277 0.6924807,-1.87903 0.689446,-3.61102 -0.0045,-2.56613 -0.5790724,-4.01898 -2.3295425,-5.89038 -2.2440106,-2.39902 -5.0486,-3.18273 -8.3568176,-2.33521 -2.4601464,0.63026 -3.9075254,1.80578 -5.2413344,4.25684 -0.639734,1.1756 -0.720041,1.60281 -0.721171,3.83646 -0.0016,3.14078 0.472257,4.46897 2.202273,6.17297 2.527956,2.48995 6.5182278,3.29667 9.4815884,1.91691 z M 134.98851,173.95682 c -4.9391,-1.07416 -9.78913,-5.09174 -12.13959,-10.05598 -1.94046,-4.09833 -1.84771,-2.63739 -1.84771,-29.10417 v -23.8125 l 0.61689,-1.98437 c 0.98396,-3.16512 2.23802,-5.16034 4.91209,-7.81512 3.87514,-3.847197 7.79947,-5.459842 13.24557,-5.443065 3.38973,0.01044 6.21968,0.720178 8.83743,2.216385 3.44044,1.966432 6.74135,5.70711 8.18071,9.2706 1.12099,2.77529 1.37176,4.70043 1.37667,10.56859 l 0.005,5.49011 h -6.35 -6.35 v -5.09498 c 0,-2.80224 -0.11581,-5.4988 -0.25736,-5.99237 -0.87109,-3.0373 -4.32592,-4.99968 -7.47297,-4.24471 -1.73334,0.41582 -3.88739,2.43947 -4.38332,4.11796 -0.40693,1.3773 -0.46429,44.16105 -0.0611,45.60993 0.64177,2.30649 3.37818,4.22584 6.03173,4.23075 2.41138,0.004 4.2601,-1.11867 5.43969,-3.30471 0.53131,-0.98462 0.5769,-1.49597 0.65454,-7.34219 l 0.0834,-6.28385 h 6.33269 6.33269 v 6.4337 c 0,6.90869 -0.18586,8.63205 -1.21402,11.25655 -2.16046,5.51487 -6.90275,9.67263 -12.73332,11.16384 -2.38024,0.60876 -6.73111,0.66508 -9.23931,0.1196 z m 43.86695,-0.14265 c -5.64178,-1.47781 -10.77157,-6.45196 -12.81571,-12.42687 -0.58821,-1.71932 -0.5884,-1.72638 -0.67381,-25.4 -0.0636,-17.63477 -0.004,-24.15264 0.23392,-25.53072 0.62755,-3.63633 2.50988,-6.92589 5.63693,-9.85108 7.81322,-7.308888 19.92397,-6.607798 26.75812,1.54902 2.65082,3.16386 3.95193,6.32966 4.38989,10.6813 0.40275,4.00171 0.16558,45.60025 -0.27003,47.36085 -0.57813,2.33669 -2.51271,5.96952 -4.12498,7.74604 -2.6316,2.89973 -6.02266,4.98558 -9.58753,5.89732 -2.67481,0.6841 -6.87989,0.67271 -9.5468,-0.0259 z m 7.32344,-12.53739 c 0.44615,-0.23072 1.22872,-0.84941 1.73904,-1.37487 1.84771,-1.90252 1.76546,-0.64851 1.68383,-25.67461 l -0.0735,-22.52979 -0.82709,-1.15042 c -2.92044,-4.06209 -8.41463,-3.71128 -10.76966,0.68767 -0.57385,1.07189 -0.57411,1.08115 -0.64771,22.75635 -0.0517,15.24091 0.0144,22.108 0.22259,23.11087 0.43476,2.09424 2.10825,3.80627 4.47953,4.58269 0.94374,0.309 3.23828,0.0858 4.19295,-0.40789 z M 57.633499,135.04589 V 96.533639 l 11.443229,0.08983 c 11.100305,0.08714 11.498731,0.108056 13.295312,0.698084 5.127702,1.684024 9.05283,5.463777 10.868539,10.465997 1.005906,2.77124 1.219395,5.48414 1.118383,14.21175 -0.0927,8.0092 -0.09536,8.04163 -0.833919,10.149 -2.224077,6.3461 -7.463274,10.9842 -13.878004,12.28576 -0.771147,0.15647 -3.301225,0.28449 -5.622396,0.28449 h -4.220311 v 14.41979 14.41979 h -6.085416 -6.085417 z m 21.314616,-2.92021 c 1.249535,-0.59295 2.934301,-2.5082 3.270073,-3.71745 0.368363,-1.32663 0.376589,-14.17736 0.0099,-15.49761 -0.384868,-1.38578 -1.464874,-2.56031 -3.020251,-3.28459 -1.214982,-0.56577 -1.692976,-0.62129 -5.368626,-0.62365 l -4.034901,-0.003 v 11.77396 11.77395 h 4.127201 c 3.229891,0 4.320564,-0.0917 5.016582,-0.42203 z m 22.606215,2.93558 V 96.56438 h 6.08542 6.08542 v 38.49688 38.49687 h -6.08542 -6.08542 z M 33.789853,119.7599 c -1.605529,-0.59534 -2.816212,-1.47227 -4.014322,-2.90768 -1.931641,-2.31422 -2.579616,-4.42631 -2.264048,-7.3797 0.234747,-2.19698 1.201193,-4.0921 2.808203,-5.50664 1.943055,-1.71035 3.041907,-2.12628 6.06814,-2.29691 2.55421,-0.14402 2.777606,-0.11379 4.161078,0.56308 2.892602,1.41522 5.168945,4.89543 5.378487,8.22295 0.158406,2.51552 -0.555316,4.39092 -2.449793,6.43718 -2.00955,2.17055 -3.891889,3.06855 -6.61389,3.15524 -1.283851,0.0409 -2.493277,-0.0722 -3.073855,-0.28752 z"
       id="path272" /></g></svg>
