<?xml version="1.0" encoding="UTF-8" standalone="no"?>
<!-- Created with Inkscape (http://www.inkscape.org/) -->

<svg
   width="283.43896mm"
   height="49.294582mm"
   viewBox="0 0 283.43896 49.294583"
   version="1.1"
   id="svg5"
   xml:space="preserve"
   inkscape:version="1.2.2 (732a01da63, 2022-12-09)"
   sodipodi:docname="LodestoneWithName.svg"
   inkscape:export-filename="Lodestone.png"
   inkscape:export-xdpi="96"
   inkscape:export-ydpi="96"
   xmlns:inkscape="http://www.inkscape.org/namespaces/inkscape"
   xmlns:sodipodi="http://sodipodi.sourceforge.net/DTD/sodipodi-0.dtd"
   xmlns="http://www.w3.org/2000/svg"
   xmlns:svg="http://www.w3.org/2000/svg"><sodipodi:namedview
     id="namedview7"
     pagecolor="#505050"
     bordercolor="#eeeeee"
     borderopacity="1"
     inkscape:showpageshadow="0"
     inkscape:pageopacity="0"
     inkscape:pagecheckerboard="0"
     inkscape:deskcolor="#505050"
     inkscape:document-units="mm"
     showgrid="false"
     inkscape:zoom="0.5272499"
     inkscape:cx="429.58756"
     inkscape:cy="53.105747"
     inkscape:window-width="1920"
     inkscape:window-height="1017"
     inkscape:window-x="1912"
     inkscape:window-y="-8"
     inkscape:window-maximized="1"
     inkscape:current-layer="layer2" /><defs
     id="defs2" /><g
     inkscape:groupmode="layer"
     id="layer2"
     inkscape:label="Layer 2"
     transform="translate(-0.10961949,0.01546898)"><path
       style="fill:#000000;stroke-width:0.264583"
       d="M 7.3092365,48.94571 C 3.0645333,47.990781 -0.27403535,43.239195 0.14521137,38.74958 0.46200468,35.357114 2.7948774,32.002898 5.7452558,30.697804 L 6.9360822,30.171045 V 24.639557 19.108069 L 5.7452558,18.58131 C 3.9478713,17.786241 1.8379658,15.643701 0.95620464,13.718185 0.30533015,12.296859 0.20223492,11.746394 0.20188855,9.6905982 0.20152778,7.5492701 0.28704545,7.1332274 1.0506601,5.5613322 3.6156438,0.28133229 9.96291,-1.4973736 14.93894,1.6693947 c 3.067647,1.9522646 4.844066,6.0680601 4.177846,9.6796743 -0.586449,3.179172 -3.028941,6.331945 -5.693909,7.349706 l -1.195128,0.456423 v 5.484359 5.484358 l 1.256771,0.477964 c 1.681011,0.639305 4.312435,3.270729 4.951741,4.951741 l 0.477963,1.256771 h 3.632275 3.632276 L 26.65795,35.55362 c 0.599837,-1.573231 2.952991,-3.967305 4.7483,-4.830874 1.935914,-0.931198 5.26978,-1.051451 7.355128,-0.265303 2.139842,0.806694 4.38349,2.934433 5.364856,5.087702 0.644237,1.413561 0.757391,1.998441 0.756658,3.911079 -0.0011,2.787733 -0.647859,4.574861 -2.365867,6.537058 C 37.926806,51.235933 29.267742,49.7625 26.604242,43.28555 l -0.485868,-1.181508 h -3.571875 -3.571875 l -0.485869,1.181508 c -1.786361,4.343974 -6.475975,6.718313 -11.1795185,5.66016 z m 5.3365495,-4.793131 c 3.730668,-2.522813 3.161077,-8.101487 -1.004851,-9.841694 -2.1865356,-0.913368 -5.0437717,-0.02225 -6.4541385,2.0129 -1.0167006,1.467099 -1.2136517,4.121981 -0.4205462,5.668926 1.0432021,2.034757 2.6317388,2.993824 4.9842011,3.00917 1.4042006,0.0092 1.7956736,-0.105672 2.8953346,-0.849302 z m 25.190942,0.356478 c 2.125366,-1.089951 3.063349,-2.799683 2.920723,-5.323822 -0.128572,-2.2754 -1.004444,-3.647035 -2.94698,-4.615042 -6.115966,-3.047714 -11.03742,5.745313 -5.363258,9.582386 1.080069,0.730382 1.507776,0.859896 2.839728,0.859896 1.021064,0 1.910607,-0.175628 2.549787,-0.503418 z M 11.640935,14.968229 C 15.806863,13.228021 16.376454,7.6493488 12.645786,5.1265355 11.565129,4.3957558 11.138344,4.2666396 9.8034581,4.2666396 c -2.3452411,0 -3.9965325,0.9899349 -5.0372078,3.0197625 -0.7931055,1.5469453 -0.5961544,4.2018289 0.4205462,5.6689279 1.4103668,2.03516 4.2676029,2.926267 6.4541385,2.012899 z m 22.814532,0.06285 c -0.507828,-0.161721 -1.407853,-0.778568 -2.000057,-1.370771 -3.331771,-3.33177 -1.31677,-9.0070287 3.316949,-9.3422018 2.049502,-0.1482477 3.187608,0.2738644 4.459891,1.6541295 2.169681,2.3538266 2.134976,5.4718473 -0.08563,7.6924463 -1.565515,1.565517 -3.56126,2.044677 -5.691158,1.366397 z"
       id="path314" /><text
       xml:space="preserve"
       style="font-style:normal;font-variant:normal;font-weight:normal;font-stretch:normal;font-size:68.4647px;font-family:'Bebas Neue';-inkscape-font-specification:'Bebas Neue';text-align:center;text-anchor:middle;fill:#000000;fill-opacity:1;stroke:none;stroke-width:16.6903;stroke-linecap:square;stroke-miterlimit:0"
       x="166.37135"
       y="48.594467"
       id="text288"><tspan
         sodipodi:role="line"
         id="tspan286"
         style="font-style:normal;font-variant:normal;font-weight:normal;font-stretch:normal;font-size:68.4647px;font-family:'Bebas Neue';-inkscape-font-specification:'Bebas Neue';fill:#000000;fill-opacity:1;stroke:none;stroke-width:16.6903"
         x="166.37135"
         y="48.594467">LODeSTONE</tspan></text></g></svg>
