<?xml version="1.0" encoding="UTF-8" standalone="no"?>
<!-- Created with Inkscape (http://www.inkscape.org/) -->

<svg
   width="242.90474"
   height="378.40714"
   viewBox="0 0 64.268542 100.12022"
   version="1.1"
   id="svg5"
   inkscape:version="1.2.2 (732a01da63, 2022-12-09)"
   sodipodi:docname="WIREIcon.svg"
   inkscape:export-filename="WIREIcon.png"
   inkscape:export-xdpi="253.69501"
   inkscape:export-ydpi="253.69501"
   xml:space="preserve"
   xmlns:inkscape="http://www.inkscape.org/namespaces/inkscape"
   xmlns:sodipodi="http://sodipodi.sourceforge.net/DTD/sodipodi-0.dtd"
   xmlns="http://www.w3.org/2000/svg"
   xmlns:svg="http://www.w3.org/2000/svg"><sodipodi:namedview
     id="namedview7"
     pagecolor="#505050"
     bordercolor="#eeeeee"
     borderopacity="1"
     inkscape:showpageshadow="0"
     inkscape:pageopacity="0"
     inkscape:pagecheckerboard="0"
     inkscape:deskcolor="#505050"
     inkscape:document-units="mm"
     showgrid="false"
     inkscape:zoom="1.4912879"
     inkscape:cx="9.7231393"
     inkscape:cy="203.85064"
     inkscape:window-width="1920"
     inkscape:window-height="1017"
     inkscape:window-x="-8"
     inkscape:window-y="1072"
     inkscape:window-maximized="1"
     inkscape:current-layer="layer1" /><defs
     id="defs2" /><g
     inkscape:label="Layer 1"
     inkscape:groupmode="layer"
     id="layer1"
     transform="translate(-34.011561,-13.076547)"><path
       id="rect1679"
       style="display:none;opacity:1;fill:none;stroke:#ffffff;stroke-width:2.64583;stroke-linecap:round;stroke-linejoin:round;stroke-miterlimit:0"
       d="M 51.242512,13.483871 H 81.049156 V 44.354916 H 51.242512 Z M 43.968376,44.354915 V 57.838847 61.564718 90.8389 c 0,7.470057 6.013874,13.48393 13.483931,13.48393 H 74.83936 c 7.470057,0 13.483931,-6.013873 13.483931,-13.48393 V 61.564718 57.838847 44.354915 H 74.83936 57.452307 Z" /><path
       style="fill:#ffffff;fill-opacity:1;stroke:#ffffff;stroke-width:1.52;stroke-dasharray:none;stroke-opacity:1"
       d="m 60.053247,95.99264 c -1.70285,-0.383095 -3.042185,-2.289289 -2.873996,-4.09039 0.127088,-1.360958 1.062968,-2.706572 2.246573,-3.230137 l 0.477724,-0.21132 v -2.219071 -2.219071 l -0.477724,-0.21132 c -0.721057,-0.318958 -1.56749,-1.178482 -1.921227,-1.950942 -0.261111,-0.570195 -0.30247,-0.791025 -0.302609,-1.61575 -1.44e-4,-0.859038 0.03416,-1.025942 0.340503,-1.656541 1.028996,-2.118181 3.575333,-2.831744 5.571569,-1.561329 1.23065,0.783191 1.943298,2.434327 1.676029,3.8832 -0.235265,1.27539 -1.215121,2.540191 -2.284229,2.948486 l -0.479449,0.183103 v 2.200164 2.200163 l 0.504179,0.191746 c 0.674373,0.25647 1.730023,1.31212 1.986493,1.986493 l 0.191744,0.50418 h 1.457163 1.457162 l 0.192232,-0.50418 c 0.240636,-0.631135 1.184652,-1.591566 1.904877,-1.938004 0.776631,-0.373571 2.114081,-0.421813 2.950662,-0.106433 0.858442,0.323622 1.758527,1.177209 2.152221,2.041036 0.25845,0.56708 0.303846,0.801716 0.303549,1.569011 -4e-4,1.118356 -0.259903,1.835299 -0.949113,2.622476 -1.841461,2.103198 -5.315225,1.5121 -6.383742,-1.086263 L 67.598921,93.24796 H 66.16599 64.733059 l -0.194917,0.473987 c -0.716636,1.742673 -2.597971,2.695192 -4.484895,2.270693 z m 2.140869,-1.922867 c 1.496633,-1.012078 1.26813,-3.250079 -0.403118,-3.948198 -0.877174,-0.366417 -2.023414,-0.0089 -2.589211,0.807517 -0.40787,0.588557 -0.486881,1.653617 -0.16871,2.274205 0.418501,0.816285 1.055776,1.201035 1.999515,1.207192 0.563324,0.0037 0.72037,-0.04239 1.161524,-0.340716 z m 10.105865,0.143008 c 0.852631,-0.437255 1.228926,-1.123149 1.171707,-2.13576 -0.05158,-0.912823 -0.402952,-1.463083 -1.182242,-1.851419 -2.453543,-1.222654 -4.427888,2.30485 -2.151582,3.844171 0.433293,0.293008 0.604877,0.344965 1.139215,0.344965 0.409624,0 0.766482,-0.07046 1.022902,-0.201957 z M 61.790998,82.361869 c 1.671248,-0.69812 1.899751,-2.936119 0.403118,-3.948197 -0.433529,-0.293168 -0.604743,-0.344966 -1.140261,-0.344966 -0.94084,0 -1.60329,0.397133 -2.020778,1.21144 -0.318171,0.620589 -0.23916,1.68565 0.16871,2.274208 0.565797,0.816446 1.712037,1.173933 2.589211,0.807515 z m 9.15252,0.02522 c -0.203726,-0.06488 -0.564791,-0.312338 -0.802365,-0.549912 -1.336608,-1.33661 -0.528248,-3.613357 1.330663,-3.747817 0.822199,-0.05948 1.278775,0.109866 1.789178,0.663588 0.870411,0.944285 0.85649,2.195144 -0.03433,3.085983 -0.628036,0.628039 -1.428673,0.820264 -2.283126,0.548158 z"
       id="path314" /><path
       id="rect341"
       style="fill:none;stroke:#ffffff;stroke-width:3.84414;stroke-linecap:round;stroke-linejoin:round;stroke-miterlimit:2.8;stroke-dasharray:none"
       d="m 48.137022,14.998617 a 5.5694249,5.1099154 0 0 0 -5.56949,5.109976 v 86.056137 a 5.5694249,5.1099154 0 0 0 5.56949,5.10997 5.5694249,5.1099154 0 0 0 5.569491,-5.10997 h 24.878645 a 5.5694249,5.1099154 0 0 0 5.56949,5.10997 5.5694249,5.1099154 0 0 0 5.569491,-5.10997 V 20.108593 a 5.5694249,5.1099154 0 0 0 -5.569491,-5.109976 5.5694249,5.1099154 0 0 0 -5.56949,5.109976 H 53.706513 a 5.5694249,5.1099154 0 0 0 -5.569491,-5.109976 z" /><path
       id="path3117"
       style="fill:none;stroke:#ffffff;stroke-width:3.8326;stroke-linecap:butt;stroke-linejoin:round;stroke-miterlimit:2.8;stroke-dasharray:none"
       d="M 42.653198,92.703167 C 38.439688,88.282014 35.927861,82.6787 35.927861,76.568462 V 52.879854 c 0,-6.110238 2.511827,-11.713551 6.725337,-16.134705" /><path
       id="path3846"
       style="fill:none;stroke:#ffffff;stroke-width:3.8326;stroke-linecap:butt;stroke-linejoin:round;stroke-miterlimit:2.8;stroke-dasharray:none"
       d="M 89.638469,92.703168 C 93.85198,88.282015 96.363806,82.678701 96.363806,76.568463 V 52.879855 c 0,-6.110238 -2.511826,-11.713551 -6.725337,-16.134705" /><rect
       style="fill:none;stroke:#ffffff;stroke-width:3.8;stroke-linecap:butt;stroke-linejoin:round;stroke-miterlimit:2.8;stroke-dasharray:none;stroke-opacity:1"
       id="rect3848"
       width="28.352699"
       height="0.25090885"
       x="51.998638"
       y="63.011204"
       ry="0.12545443" /><circle
       style="fill:none;stroke:#ffffff;stroke-width:3.8;stroke-linecap:butt;stroke-linejoin:round;stroke-miterlimit:2.8;stroke-dasharray:none;stroke-opacity:1"
       id="path4060"
       cx="55.511364"
       cy="48.848679"
       r="3.2618151" /><circle
       style="fill:none;stroke:#ffffff;stroke-width:3.8;stroke-linecap:butt;stroke-linejoin:round;stroke-miterlimit:2.8;stroke-dasharray:none;stroke-opacity:1"
       id="path4060-0"
       cx="76.587708"
       cy="48.848679"
       r="3.2618151" /></g></svg>
